# xmcd
#
# Track frame offsets: 
#        150
#        13588
#        30005
#        45383
#        57865
#        71370
#        84815
#        101043
#        118515
#        135763
#        150100
#        165395
#        176040
#        191750
#        207330
#        220995
#        232148
#        245245
#        259701
#        272524
#        285483
#        298565
#        310530
#        324467
#
# Disc length: 4551 seconds
#
# Revision: 1
# Processed by: cddbd v1.5.2PL0 Copyright (c) Steve Scherf et al.
# Submitted via: ExactAudioCopyFreeDBPlugin 1.0
#
DISCID=3c11c518
DTITLE=Johnny Hartman - The Complete Bethlehem Sessions Disc 2
DYEAR=2013
DGENRE=Jazz
TTITLE0=Blue Skies
TTITLE1=I Could Make You Care
TTITLE2=Tenderly
TTITLE3=The Lamp is Low
TTITLE4=While We Were Young
TTITLE5=Birth of the Blues
TTITLE6=I'll Follow You
TTITLE7=I Concentrate on You
TTITLE8=Stella by Starlight
TTITLE9=I Get a Kick Out of You
TTITLE10=The End of a Love Affair
TTITLE11=All of Me
TTITLE12=Blue Skies (Alternate Take)
TTITLE13=I Get a Kick out of You (Alternate Take
TTITLE14=Birth of the Blues (Alternate Take)
TTITLE15=All of Me (Alternate Take)
TTITLE16=Midnight in New Orleans (with the Earl Hines Sextet and Orchest
TTITLE16=ra)
TTITLE17=When I Dream of You (1947 version with Earl Hines)
TTITLE18=Ain't Misbehavin' (with the Earl Hines Sextet and Orchestra)
TTITLE19=I Need a Shoulder to Cry On (with the Earl Hines Sextet and Orc
TTITLE19=hestra)
TTITLE20=A Pretty Girl is Like a Melody (with the Earl Hines Sextet and 
TTITLE20=Orchestra)
TTITLE21=When I Dream of You (1953 version with Earl Hines)
TTITLE22=You Go To My Head (with the Dizzy Gillespie Orchestra)
TTITLE23=If Love is Trouble (with the Dizzy Gillespie Orchestra)
EXTD=YEAR: 2013
EXTT0=
EXTT1=
EXTT2=
EXTT3=
EXTT4=
EXTT5=
EXTT6=
EXTT7=
EXTT8=
EXTT9=
EXTT10=
EXTT11=
EXTT12=
EXTT13=
EXTT14=
EXTT15=
EXTT16=
EXTT17=
EXTT18=
EXTT19=
EXTT20=
EXTT21=
EXTT22=
EXTT23=
PLAYORDER=
